<svg width="104" height="19" viewBox="0 0 104 19" fill="none" xmlns="http://www.w3.org/2000/svg">
<path d="M10.725 15.5469H4.90809L3.97561 18.2361H0.00146484L5.64076 3.01182H10.0367L15.676 18.2361H11.6575L10.725 15.5469ZM9.74812 12.6842L7.81655 7.11067L5.90718 12.6842H9.74812Z" fill="#4F4CF6"/>
<path d="M21.1889 2.18772V18.2361H17.3923V2.18772H21.1889Z" fill="#4F4CF6"/>
<path d="M30.845 15.0915V18.2361H28.9134C27.5369 18.2361 26.4638 17.9108 25.6941 17.2602C24.9245 16.5951 24.5396 15.518 24.5396 14.0288V9.2143H23.0299V6.13475H24.5396V3.18532H28.3362V6.13475H30.8228V9.2143H28.3362V14.0722C28.3362 14.4336 28.425 14.6939 28.6026 14.8529C28.7802 15.012 29.0762 15.0915 29.4907 15.0915H30.845Z" fill="#4F4CF6"/>
<path d="M44.6379 11.9902C44.6379 12.3372 44.6157 12.6987 44.5713 13.0746H35.9792C36.0384 13.8264 36.2826 14.4047 36.7119 14.8096C37.1559 15.1999 37.6961 15.3951 38.3326 15.3951C39.2799 15.3951 39.9385 15.0047 40.3086 14.224H44.3493C44.1421 15.0192 43.7647 15.7349 43.217 16.371C42.6842 17.0072 42.0107 17.506 41.1966 17.8674C40.3826 18.2289 39.4723 18.4096 38.4658 18.4096C37.2521 18.4096 36.1716 18.1566 35.2243 17.6505C34.277 17.1445 33.537 16.4216 33.0041 15.4818C32.4713 14.5421 32.2049 13.4433 32.2049 12.1854C32.2049 10.9276 32.4639 9.82877 32.9819 8.889C33.5148 7.94923 34.2548 7.22633 35.2021 6.7203C36.1494 6.21427 37.2373 5.96125 38.4658 5.96125C39.6647 5.96125 40.7304 6.20704 41.6629 6.69861C42.5954 7.19018 43.3206 7.8914 43.8387 8.80225C44.3715 9.71311 44.6379 10.7758 44.6379 11.9902ZM40.7526 11.0143C40.7526 10.3782 40.5306 9.87214 40.0865 9.49624C39.6425 9.12033 39.0875 8.93237 38.4214 8.93237C37.7849 8.93237 37.2447 9.1131 36.8007 9.47455C36.3714 9.836 36.105 10.3493 36.0014 11.0143H40.7526Z" fill="#4F4CF6"/>
<path d="M50.4373 8.15164C50.8814 7.48657 51.4364 6.96608 52.1025 6.59018C52.7685 6.19981 53.5086 6.00463 54.3227 6.00463V9.92998H53.2792C52.3319 9.92998 51.6214 10.1324 51.1478 10.5372C50.6742 10.9276 50.4373 11.6216 50.4373 12.6192V18.2361H46.6408V6.13475H50.4373V8.15164Z" fill="#4F4CF6"/>
<path d="M61.7766 18.4096C60.5629 18.4096 59.4676 18.1566 58.4907 17.6505C57.5287 17.1445 56.7664 16.4216 56.2039 15.4818C55.6563 14.5421 55.3825 13.4433 55.3825 12.1854C55.3825 10.942 55.6637 9.85046 56.2262 8.91069C56.7886 7.95646 57.5583 7.22633 58.5352 6.7203C59.512 6.21427 60.6073 5.96125 61.821 5.96125C63.0347 5.96125 64.13 6.21427 65.1069 6.7203C66.0838 7.22633 66.8535 7.95646 67.4159 8.91069C67.9784 9.85046 68.2596 10.942 68.2596 12.1854C68.2596 13.4288 67.971 14.5276 67.3937 15.4818C66.8313 16.4216 66.0542 17.1445 65.0625 17.6505C64.0856 18.1566 62.9903 18.4096 61.7766 18.4096ZM61.7766 15.1999C62.5019 15.1999 63.1161 14.9397 63.6194 14.4192C64.1374 13.8987 64.3965 13.1541 64.3965 12.1854C64.3965 11.2167 64.1448 10.4722 63.6416 9.95166C63.1532 9.43117 62.5463 9.17093 61.821 9.17093C61.081 9.17093 60.4667 9.43117 59.9783 9.95166C59.4898 10.4577 59.2456 11.2023 59.2456 12.1854C59.2456 13.1541 59.4824 13.8987 59.9561 14.4192C60.4445 14.9397 61.0514 15.1999 61.7766 15.1999Z" fill="#4F4CF6"/>
<path d="M77.8224 6.00463C79.2729 6.00463 80.4274 6.46728 81.2859 7.3926C82.1592 8.30345 82.5958 9.5613 82.5958 11.1661V18.2361H78.8215V11.6649C78.8215 10.8553 78.6069 10.2264 78.1776 9.77817C77.7484 9.32997 77.1711 9.10587 76.4459 9.10587C75.7206 9.10587 75.1434 9.32997 74.7141 9.77817C74.2849 10.2264 74.0703 10.8553 74.0703 11.6649V18.2361H70.2737V6.13475H74.0703V7.73959C74.4551 7.20464 74.9731 6.78536 75.6244 6.48174C76.2757 6.16367 77.0083 6.00463 77.8224 6.00463Z" fill="#4F4CF6"/>
<path d="M87.1434 4.8769C86.4773 4.8769 85.9297 4.68895 85.5005 4.31304C85.086 3.92268 84.8788 3.44556 84.8788 2.8817C84.8788 2.30338 85.086 1.82627 85.5005 1.45036C85.9297 1.05999 86.4773 0.864807 87.1434 0.864807C87.7946 0.864807 88.3275 1.05999 88.7419 1.45036C89.1712 1.82627 89.3858 2.30338 89.3858 2.8817C89.3858 3.44556 89.1712 3.92268 88.7419 4.31304C88.3275 4.68895 87.7946 4.8769 87.1434 4.8769ZM89.0306 6.13475V18.2361H85.234V6.13475H89.0306Z" fill="#4F4CF6"/>
<path d="M91.027 12.1854C91.027 10.9276 91.286 9.82877 91.8041 8.889C92.3369 7.94923 93.0696 7.22633 94.0021 6.7203C94.9493 6.21427 96.0298 5.96125 97.2435 5.96125C98.7977 5.96125 100.093 6.35885 101.129 7.15404C102.18 7.94923 102.868 9.06972 103.194 10.5155H99.1529C98.8125 9.59021 98.1538 9.12756 97.1769 9.12756C96.4813 9.12756 95.9262 9.39503 95.5118 9.92998C95.0974 10.4505 94.8901 11.2023 94.8901 12.1854C94.8901 13.1686 95.0974 13.9276 95.5118 14.4626C95.9262 14.983 96.4813 15.2433 97.1769 15.2433C98.1538 15.2433 98.8125 14.7806 99.1529 13.8553H103.194C102.868 15.2722 102.18 16.3855 101.129 17.1951C100.078 18.0048 98.7829 18.4096 97.2435 18.4096C96.0298 18.4096 94.9493 18.1566 94.0021 17.6505C93.0696 17.1445 92.3369 16.4216 91.8041 15.4818C91.286 14.5421 91.027 13.4433 91.027 12.1854Z" fill="#4F4CF6"/>
</svg>
