<svg width="103" height="27" viewBox="0 0 103 27" fill="none" xmlns="http://www.w3.org/2000/svg">
<path fill-rule="evenodd" clip-rule="evenodd" d="M10.2072 14.8098C12.2366 14.8098 13.8818 13.1646 13.8818 11.1352C13.8818 9.10578 12.2366 7.4606 10.2072 7.4606C8.1778 7.4606 6.53262 9.10578 6.53262 11.1352C6.53262 13.1646 8.1778 14.8098 10.2072 14.8098ZM10.2072 21.3424C15.8445 21.3424 20.4144 16.7725 20.4144 11.1352C20.4144 5.49791 15.8445 0.927979 10.2072 0.927979C4.56993 0.927979 0 5.49791 0 11.1352C0 16.7725 4.56993 21.3424 10.2072 21.3424Z" fill="#4F4CF7"/>
<path d="M13.9188 17.6306C13.9188 14.0433 16.8269 11.1351 20.4143 11.1351V20.4144C20.4143 24.0018 17.5062 26.9099 13.9188 26.9099V17.6306Z" fill="#42E1E1"/>
<path d="M34.8269 16.635V10.3993H38.5423V8.00899H34.8269V4.73525H30.9555V8.00899H28.877V10.3993H30.9555V17.0507C30.9555 19.493 32.4105 21 34.9568 21H38.5423V18.1939H36.4118C35.3985 18.1939 34.8269 17.5704 34.8269 16.635ZM47.0743 7.74917C42.1897 7.74917 40.1112 9.77577 40.1112 14.5045C40.1112 19.2332 42.1897 21.2598 47.0743 21.2598C51.959 21.2598 54.0375 19.2332 54.0375 14.5045C54.0375 9.77577 51.959 7.74917 47.0743 7.74917ZM43.9565 14.5045C43.9565 11.7244 44.8919 10.5552 47.0743 10.5552C49.2568 10.5552 50.1922 11.7244 50.1922 14.5045C50.1922 17.2586 49.2568 18.4538 47.0743 18.4538C44.8919 18.4538 43.9565 17.2846 43.9565 14.5045ZM61.2528 21.2598C63.1755 21.2598 64.5525 20.7921 65.4619 19.7788L65.9815 21H68.9955V2.81259H65.1501V8.91836C64.2407 8.11292 62.9676 7.74917 61.2528 7.74917C57.2776 7.74917 55.5887 9.77577 55.5887 14.5045C55.5887 19.2332 57.2776 21.2598 61.2528 21.2598ZM62.2921 18.4538C60.2915 18.4538 59.4341 17.2586 59.4341 14.5045C59.4341 11.7504 60.2915 10.5552 62.2921 10.5552C64.2927 10.5552 65.1501 11.7504 65.1501 14.5045C65.1501 17.2586 64.2927 18.4538 62.2921 18.4538ZM78.3086 7.74917C73.424 7.74917 71.3454 9.77577 71.3454 14.5045C71.3454 19.2332 73.424 21.2598 78.3086 21.2598C83.1932 21.2598 85.2718 19.2332 85.2718 14.5045C85.2718 9.77577 83.1932 7.74917 78.3086 7.74917ZM75.1907 14.5045C75.1907 11.7244 76.1261 10.5552 78.3086 10.5552C80.4911 10.5552 81.4264 11.7244 81.4264 14.5045C81.4264 17.2586 80.4911 18.4538 78.3086 18.4538C76.1261 18.4538 75.1907 17.2846 75.1907 14.5045ZM101.477 11.6465C101.477 5.12499 99.4502 2.29295 94.1499 2.29295C89.1873 2.29295 87.0828 4.2416 87.0828 8.78845C87.0828 13.3353 89.0834 15.284 93.0327 15.284C97.2158 15.284 97.6315 13.1015 97.6315 13.1015C97.6315 17.2066 96.6182 18.9214 94.1499 18.9214C92.539 18.9214 91.6816 18.168 91.2399 16.3232H87.6024C88.3299 19.9607 90.2786 21.5196 94.1499 21.5196C99.2684 21.5196 101.477 18.5577 101.477 11.6465ZM94.1499 12.4779C91.8895 12.4779 90.9281 11.3607 90.9281 8.78845C90.9281 6.19025 91.8895 5.099 94.1499 5.099C96.3844 5.099 97.3457 6.21623 97.3457 8.78845C97.3457 11.3607 96.3844 12.4779 94.1499 12.4779Z" fill="#1D1D2C"/>
</svg>
