<?xml version="1.0" standalone="no"?>
<!DOCTYPE svg PUBLIC "-//W3C//DTD SVG 20010904//EN"
 "http://www.w3.org/TR/2001/REC-SVG-20010904/DTD/svg10.dtd">
<svg version="1.0" xmlns="http://www.w3.org/2000/svg"
 width="1088.000000pt" height="1088.000000pt" viewBox="0 0 1088.000000 1088.000000"
 preserveAspectRatio="xMidYMid meet">
<metadata>
Created by potrace 1.14, written by Peter Selinger 2001-2017
</metadata>
<g transform="translate(0.000000,1088.000000) scale(0.100000,-0.100000)"
fill="#4e4bf6" stroke="none">
<path d="M5191 9638 c-212 -52 -341 -160 -471 -393 -18 -33 -39 -67 -46 -75
-7 -8 -14 -22 -16 -30 -2 -8 -5 -17 -8 -20 -3 -3 -32 -50 -65 -105 -33 -55
-64 -103 -70 -107 -5 -4 -7 -8 -2 -8 4 0 -4 -18 -18 -41 -15 -22 -34 -55 -44
-72 -10 -18 -62 -106 -115 -195 -53 -90 -96 -168 -96 -173 0 -5 -4 -9 -8 -9
-9 0 -47 -71 -44 -82 1 -5 -2 -8 -7 -8 -5 0 -16 -15 -25 -32 -9 -18 -27 -51
-41 -73 -13 -22 -34 -59 -46 -82 -13 -24 -25 -43 -28 -43 -3 0 -15 -20 -26
-45 -11 -25 -23 -45 -27 -45 -5 0 -8 -4 -8 -9 0 -9 -63 -118 -80 -138 -5 -7
-10 -15 -10 -19 0 -3 -17 -34 -37 -68 -57 -92 -62 -100 -70 -116 -6 -13 -99
-172 -123 -210 -5 -8 -28 -49 -51 -90 -23 -41 -46 -76 -50 -78 -5 -2 -9 -7 -9
-12 0 -7 -122 -219 -181 -315 -10 -16 -23 -39 -28 -50 -5 -11 -20 -36 -32 -55
-13 -19 -31 -48 -39 -65 -8 -16 -18 -34 -23 -40 -22 -29 -134 -225 -128 -225
3 0 2 -4 -4 -8 -5 -4 -15 -16 -21 -27 -26 -48 -39 -70 -44 -75 -5 -5 -10 -13
-52 -89 -11 -20 -25 -39 -32 -43 -6 -4 -8 -8 -3 -8 4 0 -3 -17 -16 -37 -12
-21 -28 -47 -34 -58 -219 -374 -288 -491 -293 -495 -3 -3 -11 -16 -18 -30 -7
-14 -18 -34 -25 -45 -7 -11 -23 -38 -35 -60 -12 -22 -31 -53 -41 -70 -17 -28
-100 -169 -132 -225 -8 -14 -16 -27 -20 -30 -3 -3 -13 -21 -22 -40 -19 -38
-39 -72 -47 -80 -3 -3 -18 -30 -34 -60 -17 -30 -36 -61 -43 -68 -7 -7 -13 -18
-13 -23 0 -5 -16 -33 -35 -63 -19 -30 -35 -58 -35 -61 0 -3 -8 -18 -19 -33
-10 -15 -38 -61 -62 -102 -24 -41 -49 -83 -56 -95 -7 -11 -17 -29 -23 -40 -5
-11 -22 -38 -35 -60 -14 -22 -28 -47 -32 -55 -3 -8 -14 -26 -23 -40 -10 -14
-29 -45 -42 -70 -14 -25 -56 -97 -94 -160 -37 -63 -72 -125 -78 -137 -6 -13
-14 -23 -18 -23 -5 0 -8 -4 -8 -9 0 -5 -37 -71 -81 -147 -266 -452 -309 -527
-309 -535 0 -5 -5 -9 -11 -9 -5 0 -8 -4 -5 -9 4 -5 2 -11 -3 -13 -4 -1 -48
-72 -97 -156 -49 -84 -99 -170 -112 -190 -12 -20 -25 -44 -29 -52 -4 -8 -9
-17 -12 -20 -3 -3 -15 -21 -25 -40 -31 -56 -75 -132 -96 -165 -11 -16 -23 -37
-27 -45 -4 -8 -24 -43 -45 -78 -21 -34 -38 -64 -38 -67 0 -3 -15 -28 -32 -58
-18 -29 -38 -61 -45 -72 -7 -11 -25 -42 -41 -70 -32 -55 -86 -147 -212 -360
-45 -77 -94 -160 -108 -185 -13 -25 -28 -49 -32 -55 -4 -5 -17 -26 -28 -45
-25 -45 -120 -207 -141 -242 -39 -65 -81 -138 -81 -143 0 -3 354 -4 788 -3
l787 3 48 24 c61 30 157 123 157 151 0 6 5 16 11 23 6 7 59 95 120 197 60 102
113 192 119 200 14 20 47 79 62 110 7 14 15 27 18 30 4 3 22 32 40 65 19 33
37 62 42 63 4 2 8 8 8 12 0 9 109 197 155 270 13 19 44 72 70 117 26 46 51 85
56 89 5 3 7 10 4 15 -4 5 -1 9 4 9 6 0 11 7 11 15 0 8 5 15 10 15 6 0 10 4 10
9 0 13 73 135 82 139 5 2 8 8 8 14 0 10 115 208 151 260 11 15 19 31 19 36 0
5 7 15 15 22 8 7 12 16 9 21 -3 5 0 9 5 9 6 0 11 5 11 11 0 6 14 30 30 54 17
24 30 48 30 54 0 6 5 11 10 11 6 0 10 6 10 13 0 7 15 35 34 62 18 28 36 60 40
73 4 12 11 22 16 22 5 0 14 16 21 35 7 19 17 35 21 35 4 0 8 5 8 11 0 6 14 30
30 54 17 24 30 48 30 54 0 6 5 11 12 11 6 0 8 3 5 7 -4 3 -1 13 7 22 7 9 25
36 38 61 29 52 80 137 117 195 14 22 26 42 26 45 0 3 8 16 17 30 9 14 46 77
83 140 38 63 102 171 143 240 41 69 83 139 92 155 60 106 94 162 106 175 7 8
13 20 15 25 1 6 16 33 33 60 17 28 40 67 51 88 11 20 23 37 28 37 4 0 6 4 2 9
-3 5 -1 12 4 16 6 3 29 40 53 81 48 85 48 85 101 170 20 34 37 67 37 73 0 6 4
11 8 11 5 0 16 15 25 33 23 45 58 104 90 154 15 24 27 47 27 53 0 5 5 10 10
10 6 0 10 4 10 9 0 5 48 89 107 188 58 98 112 189 120 203 8 14 23 39 34 55
11 17 25 42 31 58 7 15 16 27 20 27 4 0 8 4 8 9 0 6 34 66 75 134 41 69 75
129 75 135 0 6 4 12 8 14 5 2 35 48 67 103 56 94 67 113 102 175 7 14 38 65
68 113 30 49 57 97 60 108 4 10 10 19 15 19 4 0 11 8 14 18 3 9 12 26 19 37 6
11 54 91 106 178 51 86 96 157 100 157 3 0 20 -23 36 -52 17 -28 40 -68 52
-87 13 -20 26 -43 30 -51 3 -8 21 -39 40 -68 18 -29 33 -54 33 -55 0 -3 171
-292 199 -337 6 -8 43 -71 83 -139 40 -67 83 -139 95 -160 12 -20 25 -43 30
-51 4 -8 29 -50 55 -92 26 -43 48 -80 48 -83 0 -3 8 -18 19 -33 27 -40 48 -76
50 -87 1 -5 8 -17 15 -25 7 -8 46 -71 86 -140 40 -69 79 -132 86 -140 7 -8 14
-19 15 -25 2 -9 22 -44 56 -100 23 -37 107 -180 118 -200 11 -19 46 -78 72
-120 22 -36 65 -109 90 -155 14 -25 32 -52 39 -61 8 -8 14 -18 14 -21 0 -4 29
-54 65 -113 36 -59 65 -109 65 -111 0 -3 11 -21 24 -42 12 -20 23 -41 24 -46
0 -5 5 -12 10 -15 8 -5 28 -39 67 -112 5 -11 13 -19 17 -19 5 0 8 -4 8 -9 0
-7 17 -37 104 -184 10 -18 27 -45 37 -62 10 -16 29 -49 41 -72 12 -24 26 -43
30 -43 4 0 8 -4 8 -9 0 -6 17 -38 37 -73 21 -35 42 -71 48 -80 117 -201 155
-265 163 -273 4 -6 22 -35 39 -65 17 -30 72 -125 123 -210 51 -85 101 -168
110 -185 9 -16 31 -53 48 -81 18 -28 32 -56 32 -62 0 -6 4 -12 8 -14 5 -1 25
-32 46 -68 21 -36 55 -94 77 -130 22 -36 42 -73 45 -83 4 -9 10 -17 15 -17 5
0 9 -5 9 -11 0 -6 13 -30 29 -54 16 -24 32 -53 36 -64 3 -12 11 -21 16 -21 5
0 8 -3 7 -7 -2 -5 19 -42 45 -84 26 -42 47 -81 47 -87 0 -7 5 -12 10 -12 6 0
10 -7 10 -15 0 -8 4 -15 9 -15 5 0 11 -8 14 -18 4 -9 17 -35 31 -57 14 -22 31
-51 39 -65 8 -14 49 -85 93 -158 43 -73 84 -140 89 -150 24 -43 160 -270 179
-302 13 -19 26 -42 30 -50 4 -8 17 -31 29 -52 12 -20 50 -83 84 -140 76 -129
140 -190 226 -216 12 -4 399 -8 860 -9 l839 -3 -20 32 c-10 18 -48 83 -84 143
-36 61 -98 166 -139 235 -40 69 -83 142 -94 162 -25 47 -106 184 -157 265 -21
34 -38 65 -38 67 0 9 -65 111 -75 118 -5 4 -6 8 -2 8 4 0 -6 20 -23 44 -16 25
-30 47 -30 50 0 5 -23 44 -109 186 -26 41 -46 77 -46 80 -1 3 -13 24 -28 47
-15 24 -27 47 -27 53 0 5 -5 10 -11 10 -5 0 -8 4 -5 9 4 5 3 11 -2 13 -4 1
-26 35 -48 73 -23 39 -87 149 -144 245 -56 96 -110 189 -120 205 -49 85 -98
167 -137 232 -23 40 -43 77 -43 81 0 5 -9 17 -20 27 -10 9 -19 20 -18 24 3 11
-25 61 -34 61 -4 0 -8 6 -8 14 0 8 -6 21 -13 28 -7 7 -24 34 -37 60 -33 61
-162 282 -169 288 -3 3 -19 30 -35 60 -16 30 -32 57 -35 60 -3 3 -13 19 -21
35 -8 17 -17 32 -20 35 -3 3 -14 22 -25 42 -11 20 -53 92 -92 159 -40 67 -73
126 -73 130 0 5 -4 9 -10 9 -5 0 -10 9 -10 19 0 11 -4 21 -8 23 -5 2 -47 68
-93 147 -46 79 -94 160 -106 180 -13 20 -26 43 -30 51 -3 8 -18 33 -32 55 -14
22 -26 42 -26 45 0 3 -8 16 -17 30 -8 14 -35 59 -59 100 -51 87 -51 87 -106
181 -24 39 -43 76 -43 80 0 5 -4 9 -8 9 -5 0 -14 16 -22 35 -8 19 -17 35 -22
35 -4 0 -8 4 -8 10 0 11 -86 157 -108 183 -8 9 -12 17 -7 17 4 0 2 7 -5 15
-17 21 -49 76 -56 98 -4 9 -10 17 -15 17 -5 0 -9 4 -9 10 0 8 -85 156 -120
210 -6 8 -13 22 -17 30 -4 8 -35 61 -70 119 -35 57 -63 105 -63 107 0 3 -11
23 -26 45 -14 22 -34 57 -46 77 -34 62 -189 325 -214 364 -13 21 -24 40 -24
42 0 3 -22 41 -50 86 -27 45 -50 83 -50 85 0 2 -18 33 -40 67 -22 35 -40 69
-40 76 0 6 -4 12 -10 12 -5 0 -10 4 -10 9 0 5 -18 39 -40 75 -22 36 -40 68
-40 71 0 3 -5 11 -10 18 -13 14 -110 177 -110 182 0 3 -19 35 -42 72 -22 38
-52 88 -66 113 -13 25 -34 61 -47 80 -12 19 -87 145 -165 280 -79 135 -149
252 -156 260 -7 8 -12 17 -12 20 1 5 -47 90 -90 158 -12 21 -27 46 -32 57 -6
11 -19 35 -30 53 -11 17 -29 47 -40 65 -11 17 -25 43 -32 57 -7 14 -15 27 -19
30 -3 3 -8 12 -12 20 -4 8 -25 44 -47 80 -22 36 -47 81 -57 100 -10 19 -21 37
-24 40 -3 3 -16 25 -30 50 -13 25 -26 47 -29 50 -3 3 -14 23 -25 45 -11 22
-23 41 -27 43 -4 2 -15 18 -23 35 -19 40 -86 121 -136 162 -48 40 -154 100
-171 97 -5 -1 -8 2 -8 6 0 5 -6 9 -12 10 -7 0 -40 8 -73 17 -86 25 -223 26
-314 3z"/>
<path d="M5327 5527 c-9 -11 -17 -25 -17 -29 0 -4 -16 -32 -35 -62 -19 -30
-35 -59 -35 -64 0 -4 -8 -17 -17 -28 -10 -11 -31 -44 -47 -74 -16 -30 -32 -57
-35 -60 -3 -3 -17 -25 -30 -50 -43 -80 -46 -84 -58 -98 -7 -7 -13 -20 -13 -28
0 -8 -4 -14 -10 -14 -5 0 -10 -4 -10 -9 0 -10 -110 -198 -142 -243 -11 -16
-16 -28 -12 -28 4 0 0 -8 -8 -17 -9 -10 -24 -34 -35 -53 -36 -68 -106 -180
-114 -186 -5 -3 -9 -14 -9 -24 0 -10 -4 -20 -8 -22 -5 -1 -25 -32 -46 -68 -20
-36 -46 -82 -59 -102 -108 -180 -147 -249 -147 -258 0 -5 -3 -10 -7 -10 -5 0
-17 -18 -27 -40 -11 -22 -23 -40 -28 -40 -4 0 -8 -5 -8 -11 0 -5 -36 -71 -81
-146 -44 -75 -81 -141 -82 -146 -1 -7 379 -11 1135 -11 753 -1 1138 2 1137 9
0 6 -9 24 -20 40 -10 17 -22 37 -26 45 -6 12 -124 212 -153 260 -5 8 -26 44
-47 80 -20 36 -40 67 -44 70 -3 3 -9 15 -13 28 -4 12 -12 22 -17 22 -5 0 -9 5
-9 11 0 6 -20 45 -45 86 -25 40 -45 78 -45 83 0 6 -4 10 -10 10 -5 0 -10 4
-10 9 0 9 -191 337 -246 423 -13 21 -24 40 -24 42 0 4 -87 152 -110 186 -6 8
-13 22 -17 30 -3 8 -15 27 -25 43 -11 15 -16 27 -12 27 4 0 -1 7 -12 15 -10 8
-15 15 -11 15 5 0 -1 12 -12 26 -12 15 -21 31 -21 35 0 5 -7 17 -15 26 -8 10
-15 22 -14 27 0 5 -3 12 -8 15 -12 8 -83 130 -83 142 0 5 -4 9 -9 9 -5 0 -11
8 -14 18 -5 13 -52 99 -61 109 -1 1 -9 -8 -19 -20z"/>
<path d="M3675 2715 c-12 -16 -34 -51 -48 -77 -14 -25 -36 -63 -49 -85 -14
-21 -28 -45 -31 -53 -4 -8 -24 -42 -45 -76 -30 -49 -111 -187 -167 -282 -5
-10 -23 -40 -40 -67 -44 -75 -74 -127 -88 -155 -6 -14 -20 -34 -29 -44 -10
-11 -18 -24 -18 -30 0 -5 -6 -17 -14 -25 -8 -9 -16 -23 -18 -31 -2 -8 -6 -17
-9 -20 -3 -3 -32 -50 -65 -105 -32 -55 -63 -103 -69 -107 -5 -4 -7 -8 -3 -8 4
0 -6 -21 -22 -46 -16 -26 -28 -50 -26 -53 3 -5 4782 -7 4819 -2 5 1 -1 14 -12
30 -12 16 -21 34 -21 40 0 6 -5 11 -11 11 -5 0 -7 5 -4 10 3 6 2 10 -3 10 -4
0 -16 15 -25 33 -9 17 -29 53 -44 79 -62 103 -83 141 -83 149 0 5 -4 9 -10 9
-5 0 -10 4 -10 10 0 8 -88 160 -139 240 -8 14 -16 27 -16 30 0 3 -10 19 -23
37 -12 17 -22 33 -22 36 0 4 -55 100 -90 157 -31 50 -107 180 -123 210 -11 19
-25 42 -33 51 -8 8 -14 19 -14 23 0 11 -72 126 -79 127 -3 0 -746 2 -1650 2
l-1644 2 -22 -30z"/>
</g>
</svg>
